<svg width="110" height="90" viewBox="0 0 110 90" fill="none" xmlns="http://www.w3.org/2000/svg">
<path fill-rule="evenodd" clip-rule="evenodd" d="M56.5533 56.8988C56.2683 57.1228 55.9629 57.306 55.5965 57.4688C55.2504 57.6317 54.884 57.7945 54.5379 57.9574C54.1918 58.1203 53.8457 58.3035 53.52 58.5071C53.1943 58.7106 52.9296 58.9549 52.7261 59.2196C52.6039 59.4028 52.5429 59.6063 52.5632 59.8303C52.5836 60.0542 52.6854 60.2578 52.8075 60.4207C52.95 60.6039 53.1332 60.726 53.3368 60.8278C53.5607 60.9296 53.7847 60.9296 54.0493 60.8482C54.3139 60.7667 54.5786 60.6039 54.8636 60.3189C55.1486 60.0339 55.4132 59.6063 55.6575 59.016C55.7593 58.7513 55.9018 58.446 56.0647 58.0999C56.2072 57.7538 56.37 57.3467 56.5533 56.8988ZM18.7496 58.6292C18.6274 58.3035 18.6478 57.7538 18.8106 57.0006C18.9531 56.2474 19.1771 55.372 19.4824 54.3541C19.7878 53.3363 20.1339 52.237 20.5614 51.0359C20.9889 49.8348 21.4164 48.6337 21.8439 47.453C22.2918 46.2519 22.7193 45.0915 23.1264 43.9515C23.5539 42.8115 23.9 41.7936 24.2054 40.8979C24.5107 40.0022 24.7143 39.249 24.8568 38.6586C24.9789 38.0682 24.9993 37.7222 24.8771 37.6C24.7754 37.5186 24.8161 37.4372 24.9382 37.3354C25.0807 37.2336 25.2843 37.1522 25.5489 37.0911C25.8136 37.03 26.119 36.9893 26.4447 36.9689C26.7704 36.9486 27.0961 36.9689 27.4015 37.0504C27.7068 37.1318 27.9511 37.2539 28.1954 37.4575C28.4193 37.6611 28.5415 37.9461 28.5822 38.3125C28.6636 39.0047 28.5415 39.9411 28.2361 41.0811C27.9308 42.2211 27.5236 43.4833 27.0147 44.8676C26.5057 46.2316 25.9561 47.6566 25.3454 49.1223C24.7346 50.588 24.185 51.9927 23.6557 53.3159C23.1468 54.6391 22.7193 55.8402 22.3732 56.8988C22.0271 57.9574 21.8846 58.7717 21.9253 59.3213C21.9253 59.4842 21.8032 59.6471 21.5385 59.8099C21.2739 59.9728 20.9685 60.0542 20.6225 60.0542C20.2764 60.0542 19.9099 59.9524 19.5435 59.7489C19.1974 59.5656 18.9328 59.1788 18.7496 58.6292ZM53.7236 49.163C53.6829 49.3462 53.6625 49.5091 53.6422 49.6923C53.5811 50.1809 53.5811 50.6491 53.6422 51.0766C53.7032 51.5041 53.805 51.8705 53.9679 52.1759C54.1307 52.4813 54.3547 52.7052 54.6193 52.8884C54.884 53.0513 55.2097 53.1327 55.5761 53.1123C56.1258 53.092 56.6754 52.8681 57.2658 52.3998C57.8358 51.952 58.4058 51.382 58.9758 50.7102C58.5686 51.6466 58.1819 52.5423 57.8154 53.377C57.449 54.2116 57.164 54.9649 56.94 55.657C56.6143 55.942 56.2479 56.1863 55.8 56.4102C55.3522 56.6342 54.9043 56.8581 54.4565 57.082C54.0086 57.306 53.5607 57.5299 53.1332 57.7742C52.7057 58.0185 52.3596 58.2831 52.0543 58.5681C51.7896 58.8328 51.6268 59.0771 51.5657 59.301C51.5046 59.5249 51.4843 59.7285 51.5046 59.8914C51.6064 60.3799 51.81 60.8074 52.1561 61.1128C52.5021 61.4385 52.9093 61.6624 53.3775 61.805C53.8457 61.9475 54.3547 61.9882 54.8839 61.9678C55.4336 61.9475 55.9425 61.8253 56.4515 61.6421C56.9604 61.4589 57.4083 61.1739 57.8154 60.8074C58.2226 60.441 58.5076 60.0135 58.6908 59.5046C58.7722 59.3214 58.874 59.0363 59.0369 58.6496C59.1997 58.2628 59.3829 57.8556 59.5662 57.4078C59.7697 56.9599 59.9529 56.5324 60.1362 56.1049C60.3194 55.6774 60.4619 55.3109 60.584 55.0463C61.378 54.6391 62.2126 54.0488 63.0473 53.2956C63.8819 52.522 64.6962 51.667 65.4494 50.7102C65.8566 50.2012 66.2434 49.6923 66.6098 49.163C66.5691 49.3462 66.5284 49.5294 66.508 49.6923C66.447 50.1809 66.447 50.6491 66.508 51.0766C66.5691 51.5041 66.6709 51.8705 66.8337 52.1759C66.9966 52.4813 67.2205 52.7052 67.4852 52.8884C67.7498 53.0513 68.0755 53.1327 68.442 53.1123C68.8898 53.1123 69.3581 52.9495 69.8466 52.6238C70.3352 52.298 70.8034 51.8705 71.292 51.3616C71.7602 50.8527 72.2285 50.2827 72.6763 49.6516L72.7374 49.5702C72.6763 49.7737 72.6152 49.9773 72.5745 50.1809C72.3913 50.9137 72.371 51.443 72.4727 51.7891C72.6356 52.3388 72.8799 52.7256 73.2056 52.9291C73.5313 53.1327 73.857 53.2345 74.1624 53.2141C74.4678 53.2141 74.7324 53.1123 74.9156 52.9698C75.1192 52.807 75.1803 52.6645 75.0988 52.522C74.9563 52.237 75.0378 51.6466 75.3839 50.7305C75.7299 49.8145 76.1981 48.6948 76.7885 47.3919L76.8496 47.2901V47.2698L77.216 46.5166C77.5214 45.9873 77.9082 45.3969 78.3967 44.7455C78.8853 44.094 79.3739 43.4833 79.8828 42.8929C80.3918 42.3229 80.86 41.8344 81.3282 41.4476C81.7761 41.0608 82.1425 40.8572 82.3868 40.8368C82.7736 40.8165 82.9975 40.9183 83.0382 41.1422C83.0789 41.3661 83.0382 41.6715 82.8754 42.099C82.7329 42.5061 82.5089 42.9947 82.2036 43.5647C81.8982 44.1347 81.5929 44.7455 81.2875 45.4173C80.9821 46.089 80.6971 46.8016 80.4325 47.5344C80.1678 48.2673 79.9846 49.0205 79.9032 49.7737C79.8421 50.2012 79.8421 50.6084 79.9236 51.0359C79.9846 51.443 80.1068 51.8298 80.2696 52.1556C80.4325 52.4813 80.6564 52.7459 80.9211 52.9495C81.1857 53.1327 81.4911 53.2345 81.8779 53.2141C82.3257 53.2141 82.7939 53.0513 83.2825 52.7256C83.7711 52.3998 84.2393 51.9723 84.7279 51.4634C85.1961 50.9545 85.644 50.4048 86.0918 49.7941C86.0511 49.9162 86.0308 50.0384 86.0104 50.1402C85.8476 50.8527 85.8272 51.443 85.9901 51.8705C86.1529 52.4202 86.3972 52.807 86.7229 53.0106C87.0486 53.2141 87.3744 53.3159 87.6797 53.2956C87.9851 53.2956 88.2497 53.1938 88.4329 53.0513C88.6365 52.8884 88.6976 52.7459 88.6162 52.6034C88.4737 52.3184 88.4737 51.9316 88.6569 51.4023C88.8401 50.873 89.0844 50.2827 89.4305 49.5905C89.7562 48.9187 90.143 48.1859 90.5705 47.3919C90.998 46.6183 91.3848 45.8448 91.7308 45.0915C92.0566 44.603 92.3823 44.094 92.7487 43.6054C93.1151 43.1169 93.4816 42.669 93.8277 42.2619C94.1737 41.8751 94.5198 41.5494 94.8252 41.2847C95.1305 41.0201 95.3748 40.8979 95.558 40.8776C95.9855 40.8368 96.1891 41.0201 96.1484 41.3865C96.1077 41.7733 95.9448 42.2822 95.6395 42.9133C95.3341 43.5647 94.9677 44.2772 94.5198 45.0915C94.0719 45.9058 93.6444 46.7201 93.2576 47.5548C92.8708 48.3894 92.5655 49.1834 92.3416 49.9569C92.1176 50.7305 92.0973 51.3616 92.2805 51.9113C92.4434 52.4609 92.7284 52.8273 93.1355 53.0106C93.5427 53.1938 93.9294 53.2752 94.2959 53.2548C94.6623 53.2345 94.988 53.1531 95.2323 53.0106C95.4766 52.8681 95.5377 52.7256 95.4155 52.6238C95.2323 52.4813 95.2323 52.1148 95.4155 51.5448C95.5987 50.9748 95.8634 50.2827 96.1891 49.4684C96.4538 48.9391 96.7591 48.3487 97.1052 47.738C97.4513 47.1069 97.8381 46.4758 98.2452 45.8448C98.6524 45.2137 99.0391 44.603 99.4463 43.9922C99.8534 43.4019 100.24 42.8726 100.607 42.4044C100.973 41.9361 101.319 41.5697 101.625 41.3051C101.93 41.0201 102.174 40.8979 102.357 40.8979C102.744 40.8979 102.968 40.9997 103.009 41.2236C103.05 41.4476 103.009 41.7529 102.846 42.1804C102.703 42.5876 102.48 43.0762 102.174 43.6462C101.869 44.2162 101.563 44.8269 101.258 45.4783C100.953 46.1501 100.668 46.8423 100.403 47.5751C100.138 48.308 99.9552 49.0612 99.8738 49.8145C99.8127 50.242 99.8127 50.6491 99.8942 51.0766C99.9552 51.4838 100.077 51.8705 100.24 52.1963C100.403 52.522 100.627 52.7866 100.892 52.9902C101.156 53.1734 101.462 53.2752 101.848 53.2548C102.296 53.2548 102.765 53.092 103.253 52.7663C103.742 52.4406 104.21 52.013 104.699 51.5041C105.167 50.9952 105.635 50.4252 106.083 49.7941C106.531 49.163 106.938 48.5523 107.325 47.9212C107.711 47.3105 108.037 46.7201 108.322 46.1908C108.607 45.6412 108.811 45.2137 108.974 44.9083C109.055 44.7862 109.055 44.664 108.994 44.5419C108.933 44.4401 108.831 44.3587 108.729 44.318C108.607 44.2772 108.505 44.2772 108.363 44.318C108.241 44.3587 108.139 44.4401 108.078 44.603C107.976 44.9083 107.772 45.3155 107.528 45.804C107.264 46.2926 106.979 46.8016 106.632 47.3308C106.307 47.8601 105.94 48.4098 105.554 48.9391C105.167 49.4887 104.8 49.9773 104.454 50.4048C104.108 50.8323 103.782 51.1784 103.477 51.4634C103.172 51.728 102.948 51.8705 102.785 51.8705C102.418 51.8705 102.215 51.728 102.174 51.4634C102.154 51.1988 102.215 50.8323 102.378 50.4048C102.541 49.957 102.785 49.448 103.09 48.8373C103.396 48.2469 103.701 47.6159 104.006 46.9441C104.312 46.2723 104.597 45.6005 104.841 44.9083C105.085 44.2162 105.228 43.5647 105.269 42.9337C105.391 41.9158 105.289 41.1015 104.943 40.4704C104.597 39.8393 104.047 39.5136 103.314 39.5136C102.907 39.5136 102.48 39.6358 102.052 39.9004C101.625 40.165 101.177 40.5111 100.729 40.959C100.281 41.4069 99.8331 41.9158 99.4056 42.4858C98.9781 43.0558 98.5506 43.6665 98.1434 44.2976C98.2248 44.0533 98.2656 43.8294 98.3063 43.5851C98.347 43.3612 98.3877 43.1372 98.4284 42.9133C98.5506 41.8954 98.4488 41.0811 98.0824 40.4297C97.7363 39.7783 97.1866 39.4729 96.4538 39.4933C95.8634 39.5136 95.2323 39.7783 94.5809 40.2872C93.9294 40.7961 93.2984 41.4068 92.708 42.1194C92.8098 41.6308 92.7894 41.2033 92.6876 40.8776C92.5248 40.3279 92.2398 39.9615 91.853 39.7783C91.4662 39.595 91.0794 39.5136 90.6926 39.534C90.3058 39.5543 90.0005 39.6358 89.7358 39.7783C89.4915 39.9208 89.4305 40.0633 89.5526 40.165C89.6951 40.3075 89.6951 40.6536 89.5526 41.1626C89.4101 41.6715 89.1658 42.3026 88.8605 43.0151C87.7815 45.4376 86.0918 48.4505 84.4632 50.4252C84.1172 50.8527 83.7915 51.1987 83.4861 51.4838C83.1807 51.7484 82.9568 51.8909 82.7939 51.8909C82.4275 51.8909 82.2239 51.7484 82.1832 51.4838C82.1629 51.2191 82.2239 50.8527 82.3868 50.4252C82.5497 49.9773 82.7939 49.4684 83.0993 48.8577C83.4047 48.2673 83.71 47.6362 84.0154 46.9644C84.3207 46.2926 84.6058 45.6208 84.85 44.9287C85.0943 44.2365 85.2368 43.5851 85.2775 42.954C85.3997 41.9361 85.2979 41.1218 84.9315 40.4704C84.5854 39.819 84.0357 39.5136 83.3029 39.534C82.7125 39.5543 82.0611 39.819 81.3893 40.3075C80.7175 40.7961 80.0457 41.4068 79.3943 42.1194C80.7379 39.3508 81.8372 36.7857 82.8143 33.8543C82.9772 33.1825 83.0179 32.6735 82.8957 32.3275C82.7329 31.7778 82.4479 31.4114 82.0611 31.2282C81.6743 31.0449 81.2875 30.9635 80.9007 30.9839C80.5139 31.0042 80.2085 31.0857 79.9439 31.2282C79.6996 31.3707 79.6385 31.5132 79.7607 31.6149C79.8828 31.7167 79.8421 32.0628 79.6793 32.6328C78.9057 35.2182 77.2974 38.5365 76.1574 41.1015C74.9971 43.7276 73.8163 46.0483 72.147 48.9187C71.8213 49.4887 71.4142 49.9366 71.0477 50.3641C70.7017 50.7916 70.3759 51.158 70.0909 51.4227C69.8059 51.7077 69.5616 51.8502 69.3784 51.8705C69.0527 51.9113 68.9102 51.6873 68.9713 51.1988C69.0323 50.7102 69.2156 50.0791 69.5209 49.2852C69.8263 48.4912 70.2334 47.5548 70.7627 46.4962C71.2717 45.4376 71.8009 44.3383 72.3506 43.1779C72.9002 42.0379 73.4499 40.8776 73.9996 39.7172C74.8342 37.9461 76.0353 35.2589 76.361 33.3657C76.4424 32.9178 76.4221 32.5717 76.3407 32.3071C76.1778 31.7574 75.8928 31.391 75.4856 31.2078C75.0785 31.0246 74.6917 30.9432 74.3253 30.9635C73.9588 30.9839 73.6331 31.0653 73.3888 31.2078C73.1445 31.3503 73.0835 31.4928 73.2056 31.5946C73.3074 31.6964 73.2667 32.0017 73.1242 32.531C72.3506 35.2793 71.1902 37.5797 70.0502 40.165C68.5641 43.5851 67.7091 45.9873 65.5309 49.1834C64.9202 50.0791 64.2076 50.8934 63.4951 51.6873C62.7623 52.4813 62.0701 53.1123 61.3983 53.5602C61.4797 53.3159 61.663 52.8884 61.948 52.2573C62.2533 51.6263 62.5994 50.8934 62.9862 50.0587C63.373 49.2241 63.7801 48.3284 64.2076 47.3716C64.6351 46.4148 65.0219 45.519 65.3477 44.6437C65.6734 43.7887 65.938 42.9947 66.1212 42.3026C66.3045 41.6104 66.3452 41.1015 66.2637 40.7961C66.1009 40.2261 65.8159 39.8393 65.4291 39.6358C65.0423 39.4322 64.6555 39.3508 64.2687 39.3508C63.8819 39.3711 63.5562 39.4525 63.2916 39.595C63.0269 39.7375 62.9455 39.88 63.0473 39.9818C63.1491 40.0836 63.1491 40.3076 63.1083 40.6333C63.0473 40.959 62.9455 41.3458 62.7826 41.8344C62.6198 42.3229 62.4162 42.8522 62.1719 43.4629C61.9276 44.0737 61.6426 44.7047 61.3372 45.3969C61.0522 45.9669 60.6858 46.6183 60.2176 47.3512C59.7494 48.0841 59.2812 48.7762 58.8129 49.4277C58.3447 50.0791 57.8765 50.6287 57.449 51.0766C57.0011 51.5245 56.6754 51.7688 56.4515 51.7891C56.024 51.8298 55.8408 51.6466 55.8815 51.2802C55.9222 50.8934 56.1054 50.4048 56.4108 49.7534C56.7161 49.1223 57.1029 48.3894 57.5508 47.5955C57.9986 46.7812 58.4465 45.9669 58.8333 45.1323C59.2404 44.2976 59.5458 43.5037 59.7697 42.7504C59.9937 41.9769 60.014 41.3458 59.8512 40.7961C59.6883 40.2465 59.4033 39.88 58.9961 39.6968C58.589 39.5136 58.2022 39.4322 57.8358 39.4525C57.4693 39.4729 57.1436 39.5543 56.8993 39.6968C56.655 39.8393 56.594 39.9818 56.7161 40.0836C56.8383 40.1854 56.879 40.4297 56.7772 40.7961C56.6958 41.1626 56.5533 41.5901 56.3293 42.099C55.3929 44.318 54.1511 46.883 52.7464 48.878C52.3596 49.4277 51.9932 49.9162 51.6471 50.3437C51.301 50.7712 50.9753 51.1173 50.67 51.4023C50.3646 51.667 50.1407 51.8095 49.9778 51.8095C49.6114 51.8095 49.4078 51.667 49.3671 51.4023C49.3467 51.1377 49.4078 50.7712 49.5707 50.3437C49.7335 49.8959 49.9778 49.3869 50.2832 48.7762C50.5885 48.1859 50.8939 47.5548 51.1993 46.883C51.5046 46.2112 51.7896 45.5394 52.0339 44.8472C52.2782 44.1551 52.4207 43.5037 52.4614 42.8726C52.5836 41.8547 52.4818 41.0404 52.1153 40.389C51.7693 39.7375 51.2196 39.4322 50.4868 39.4525C49.8964 39.4729 49.245 39.7375 48.5732 40.2261C47.9014 40.7147 47.2296 41.3254 46.5781 42.0379C47.0871 40.9793 47.5756 39.9411 48.0439 38.9232C48.5121 37.885 48.9192 36.9486 49.245 36.0732C49.5707 35.1978 49.8353 34.4243 49.9982 33.7728C50.161 33.101 50.2018 32.6125 50.0796 32.246C49.9168 31.6964 49.6317 31.3299 49.245 31.1467C48.8582 30.9635 48.4714 30.8821 48.0846 30.9024C47.6978 30.9228 47.3924 31.0042 47.1278 31.1467C46.8835 31.2892 46.8224 31.4317 46.9446 31.5335C47.0464 31.6353 47.026 31.9814 46.8631 32.5514C46.7003 33.1214 46.4356 33.8339 46.0692 34.7093C45.7028 35.5846 45.2956 36.5618 44.8274 37.6407C44.3592 38.74 43.8502 39.8597 43.3413 41.0201C42.8324 42.1804 42.3234 43.3204 41.8349 44.4605C41.3463 45.6005 40.9188 46.6591 40.5523 47.6566C40.1859 48.6337 39.9213 49.5091 39.738 50.242C39.5548 50.9748 39.5345 51.5041 39.6363 51.8502C39.7991 52.3998 40.0434 52.7866 40.3691 52.9902C40.6948 53.1938 41.0206 53.2956 41.3259 53.2752C41.6313 53.2752 41.8756 53.1734 42.0791 53.0309C42.2827 52.8681 42.3438 52.7256 42.2624 52.5831C42.1199 52.2981 42.2013 51.7077 42.5474 50.7916C42.8934 49.8755 43.3617 48.7559 43.952 47.453L44.0131 47.3512V47.3308L44.3795 46.5776C44.6849 46.0483 45.0717 45.458 45.5603 44.8065C46.0488 44.1551 46.5374 43.5444 47.0464 42.954C47.5553 42.384 48.0235 41.8954 48.4917 41.5086C48.9396 41.1218 49.306 40.9183 49.5503 40.8979C49.9371 40.8776 50.161 40.9793 50.2017 41.2033C50.2425 41.4272 50.2018 41.7326 50.0389 42.1601C49.8964 42.5672 49.6725 43.0558 49.3671 43.6258C49.0617 44.1958 48.7564 44.8065 48.451 45.4783C48.1457 46.1501 47.8606 46.8626 47.596 47.5955C47.3314 48.3284 47.1481 49.0816 47.0667 49.8348C47.0056 50.2623 47.0056 50.6695 47.0871 51.097C47.1481 51.5041 47.2703 51.8909 47.4331 52.2166C47.596 52.5423 47.8199 52.807 48.0846 53.0106C48.3492 53.1938 48.6546 53.2956 49.0414 53.2752C49.4892 53.2752 49.9575 53.1123 50.446 52.7866C50.9346 52.4609 51.4028 52.0334 51.8914 51.5245C52.3596 51.0155 52.8279 50.4455 53.2757 49.8145C53.4996 49.4684 53.6014 49.3055 53.7236 49.163ZM39.392 39.1879C39.738 40.1243 39.8806 41.0811 39.8602 42.0379C39.8398 42.9133 39.677 43.809 39.3716 44.7251C39.0663 45.6208 38.6184 46.4962 38.0484 47.3105C37.3969 48.2673 36.6234 49.1223 35.7276 49.8959C34.8319 50.6695 33.8548 51.2802 32.7962 51.7688C32.4094 51.9723 32.0022 52.1352 31.6154 52.2573C31.2083 52.3795 30.8215 52.4813 30.4347 52.5831C31.1676 53.0716 31.8801 53.6416 32.5722 54.2931C33.2644 54.9649 33.9769 55.6367 34.6894 56.3695C35.4019 57.082 36.1144 57.7945 36.8066 58.4867C37.5191 59.1789 38.252 59.8099 39.0052 60.3596C39.7584 60.9092 40.532 61.3367 41.3463 61.6624C42.1402 61.9882 42.9952 62.1307 43.8706 62.09C44.0335 62.09 44.1149 62.2732 44.0742 62.6192C44.0538 62.9653 43.9113 63.3521 43.6874 63.8C42.6288 65.8357 40.6948 66.0189 38.822 64.7568C38.0077 64.2071 37.1934 63.4946 36.3791 62.6396C35.5648 61.7846 34.7505 60.8278 33.9565 59.7896C33.1626 58.7513 32.3687 57.7538 31.6154 56.7767C30.8622 55.8199 30.1294 54.9649 29.4169 54.232C28.6229 53.4177 27.9715 52.8273 26.8315 52.6034C26.5872 52.5627 26.1393 52.4406 25.9968 52.237C25.9154 52.1352 25.895 52.0131 25.9154 51.8705C25.9561 51.5855 26.119 51.4023 26.4243 51.382C27.2793 51.3209 28.114 51.1377 28.9486 50.812C29.7629 50.4862 30.5365 50.0587 31.2694 49.5294C32.0022 49.0002 32.6537 48.3894 33.2237 47.6973C33.7937 47.0051 34.2619 46.2315 34.608 45.3969C35.1576 44.1144 35.4426 42.7912 35.4426 41.4679C35.4426 40.1243 35.1576 38.9232 34.608 37.8239C34.0583 36.7246 33.244 35.8086 32.1651 35.0961C31.0862 34.3632 29.7629 33.956 28.1751 33.8746C26.9943 33.895 25.895 34.1596 24.8771 34.6482C23.8593 35.1368 22.9228 35.7882 22.1289 36.5618C21.3146 37.3354 20.6428 38.2311 20.0932 39.2286C19.5435 40.2261 19.1567 41.2236 18.9124 42.2415C18.6885 43.2594 18.6274 44.2162 18.7496 45.1526C18.8717 46.089 19.1974 46.883 19.7471 47.5344C19.8489 47.6769 19.8285 47.8601 19.6657 48.0637C19.5028 48.2673 19.2585 48.4301 18.9531 48.5726C18.6478 48.7152 18.3017 48.7966 17.9353 48.8169C17.5688 48.8373 17.2635 48.7355 16.9988 48.5319C16.3881 47.9416 15.9403 47.2901 15.6756 46.5776C15.411 45.8651 15.2888 45.1323 15.2888 44.3994C15.3092 43.6462 15.4313 42.9133 15.6756 42.1601C15.9199 41.4068 16.2456 40.6943 16.6324 40.0225C17.2024 39.0047 17.9556 38.0682 18.8717 37.1725C19.7878 36.2768 20.7853 35.5032 21.8439 34.8314C22.9228 34.1596 24.0425 33.6507 25.2029 33.2639C26.3632 32.8771 27.5033 32.6735 28.6026 32.6532C29.4169 32.6328 30.2311 32.6939 31.0454 32.7957C31.8597 32.9178 32.6537 33.1214 33.4273 33.4268C34.2008 33.7118 34.9541 34.1189 35.6869 34.6278C36.4198 35.1368 37.1323 35.7679 37.8041 36.5414C38.1502 36.9689 38.4759 37.4168 38.7405 37.885C39.0052 38.2515 39.2088 38.7197 39.392 39.1879Z" fill="#C29018"/>
<path d="M107.914 59.9525C107.914 59.9118 107.914 59.8711 107.914 59.8304C107.914 59.3011 107.731 59.0365 107.364 59.0365C106.998 59.0365 106.815 59.3418 106.815 59.9322H107.914V59.9525ZM109.013 60.604H106.794V60.8279C106.794 61.1943 106.855 61.4386 106.957 61.5608C107.059 61.6829 107.201 61.744 107.364 61.744C107.731 61.744 107.934 61.5201 107.975 61.0518L109.013 61.1129C108.83 62.0697 108.26 62.5379 107.344 62.5379C106.774 62.5379 106.326 62.3547 106.041 61.9679C105.736 61.6015 105.593 61.0926 105.593 60.4615C105.593 59.749 105.756 59.2197 106.061 58.8329C106.387 58.4664 106.794 58.2629 107.344 58.2629C107.833 58.2629 108.219 58.4257 108.545 58.7515C108.85 59.1179 109.013 59.7286 109.013 60.604ZM105.125 59.8915L104.026 59.9322C104.005 59.6879 103.965 59.4843 103.904 59.3622C103.842 59.24 103.72 59.179 103.557 59.179C103.171 59.179 102.967 59.5861 102.967 60.38C102.967 60.8483 103.008 61.174 103.11 61.3572C103.211 61.5404 103.354 61.6422 103.537 61.6422C103.842 61.6422 103.985 61.3979 104.026 60.889L105.125 60.95C105.023 62.029 104.474 62.5583 103.476 62.5583C102.926 62.5583 102.519 62.3751 102.234 62.029C101.949 61.6829 101.807 61.1536 101.807 60.4411C101.807 59.749 101.949 59.2197 102.255 58.8532C102.56 58.4868 102.987 58.3036 103.537 58.3036C104.514 58.3036 105.044 58.8329 105.125 59.8915ZM99.9338 58.385H101.115V62.4565H99.9338V58.385ZM101.115 58.0389H99.9135V56.9193H101.115V58.0389ZM98.0406 60.4208C98.0406 59.9118 97.9999 59.5454 97.9388 59.3622C97.8574 59.179 97.7352 59.0975 97.552 59.0975C97.3688 59.0975 97.2467 59.179 97.1652 59.3622C97.0838 59.5454 97.0431 59.8915 97.0431 60.4208C97.0431 60.9297 97.0838 61.2758 97.1449 61.459C97.206 61.6626 97.3485 61.744 97.552 61.744C97.7352 61.744 97.8777 61.6422 97.9388 61.459C97.9999 61.2758 98.0406 60.9297 98.0406 60.4208ZM99.2621 60.4208C99.2621 61.8458 98.692 62.5379 97.552 62.5379C96.412 62.5379 95.842 61.8254 95.842 60.4208C95.842 59.0161 96.412 58.3036 97.552 58.3036C98.692 58.3036 99.2621 59.0161 99.2621 60.4208ZM91.913 56.9396H93.0938V58.8125C93.2973 58.4664 93.6434 58.3036 94.132 58.3036C94.417 58.3036 94.6409 58.3647 94.8038 58.5072C94.9666 58.6293 95.0684 58.7922 95.1091 58.9957C95.1499 59.1993 95.1702 59.4843 95.1702 59.8507V62.4769H93.9895V59.8507C93.9895 59.5861 93.9691 59.4029 93.9081 59.3215C93.847 59.24 93.7452 59.1993 93.5823 59.1993C93.4195 59.1993 93.2973 59.24 93.1955 59.3215C93.0938 59.4029 93.053 59.5861 93.053 59.8915V62.4769H91.8723V56.9396H91.913ZM90.1419 60.4615L91.3023 60.5225C91.2616 61.1129 91.058 61.6015 90.7119 61.9883C90.3659 62.3547 89.8977 62.5583 89.3276 62.5583C88.6355 62.5583 88.0858 62.314 87.7194 61.8051C87.353 61.2961 87.1698 60.604 87.1698 59.7286C87.1698 58.8329 87.353 58.1407 87.7194 57.6318C88.0858 57.1229 88.6355 56.8786 89.348 56.8786C90.5287 56.8786 91.1802 57.5911 91.282 59.0161L90.1419 59.0975C90.1216 58.2832 89.8366 57.8761 89.348 57.8761C89.0834 57.8761 88.8798 58.0186 88.7169 58.2629C88.5541 58.5275 88.493 59.0365 88.493 59.7897C88.493 60.4615 88.5744 60.9297 88.7169 61.1943C88.8594 61.4386 89.063 61.5811 89.348 61.5811C89.7755 61.5608 90.0605 61.1943 90.1419 60.4615ZM83.2001 57.1229L84.3401 57.0821V58.3647H85.1137V59.2604H84.3401V60.7668C84.3401 61.0518 84.3401 61.2147 84.3604 61.2961C84.3808 61.3776 84.4215 61.4386 84.4826 61.4997C84.5437 61.5608 84.6658 61.5811 84.849 61.5811C84.9304 61.5811 85.0526 61.5811 85.1747 61.5811V62.4361C84.9101 62.4972 84.6658 62.5176 84.4622 62.5176C84.0958 62.5176 83.8312 62.4565 83.6479 62.314C83.4647 62.1715 83.3426 62.0086 83.2815 61.8254C83.2204 61.6218 83.2001 61.3165 83.2001 60.8686V59.24H82.7319V58.3443H83.2001V57.1229ZM81.0015 60.5225C80.6554 60.5633 80.4111 60.6243 80.2686 60.7465C80.1261 60.8483 80.0447 61.0315 80.0447 61.2961C80.0447 61.6422 80.1668 61.8051 80.4315 61.8051C80.574 61.8051 80.6961 61.7236 80.8183 61.5811C80.9404 61.4183 80.9811 61.1333 80.9811 60.7261V60.5225H81.0015ZM80.0854 59.6879L78.9657 59.5861C79.0268 59.179 79.1897 58.8532 79.5154 58.6497C79.8207 58.4257 80.2075 58.3239 80.6758 58.3239C81.0625 58.3239 81.3883 58.4054 81.6326 58.5479C81.8768 58.6904 82.0193 58.8736 82.0804 59.0568C82.1415 59.24 82.1822 59.5454 82.1822 59.9525V61.5811C82.1822 62.0901 82.2026 62.3954 82.2433 62.4769H81.144C81.1033 62.3751 81.0829 62.1511 81.0829 61.8458C80.8183 62.314 80.4315 62.5583 79.9225 62.5583C79.5968 62.5583 79.3322 62.4565 79.1286 62.2733C78.925 62.0901 78.8232 61.8051 78.8232 61.4386C78.8232 60.9908 78.9861 60.6243 79.2915 60.38C79.5968 60.1358 80.1668 59.9729 81.0015 59.9322V59.7693C81.0015 59.5047 80.9811 59.3011 80.92 59.1993C80.859 59.0975 80.7572 59.0365 80.5943 59.0365C80.2686 59.0568 80.1057 59.2604 80.0854 59.6879ZM77.1539 59.9525C77.1539 59.9118 77.1539 59.8711 77.1539 59.8304C77.1539 59.3011 76.9707 59.0365 76.6043 59.0365C76.2378 59.0365 76.0546 59.3418 76.0546 59.9322H77.1539V59.9525ZM78.2532 60.604H76.0343V60.8279C76.0343 61.1943 76.0953 61.4386 76.1971 61.5608C76.2989 61.6829 76.4414 61.744 76.6043 61.744C76.9707 61.744 77.1743 61.5201 77.215 61.0518L78.2532 61.1129C78.07 62.0697 77.5 62.5379 76.5839 62.5379C76.0139 62.5379 75.566 62.3547 75.281 61.9679C74.9757 61.6015 74.8332 61.0926 74.8332 60.4615C74.8332 59.749 74.996 59.2197 75.3014 58.8329C75.6271 58.4664 76.0343 58.2629 76.5839 58.2629C77.0725 58.2629 77.4593 58.4257 77.785 58.7515C78.1107 59.1179 78.2532 59.7286 78.2532 60.604ZM72.3903 58.385H73.4285V59.3622C73.6117 58.67 73.9578 58.3239 74.426 58.3239C74.4871 58.3239 74.5482 58.3239 74.6296 58.3443V59.464C74.5482 59.4436 74.4871 59.4436 74.426 59.4436C73.856 59.4436 73.571 59.8711 73.571 60.7058V62.4565H72.3903V58.385ZM69.5403 59.525H71.5149V62.4769H70.9856L70.8228 61.8458C70.5174 62.314 70.0492 62.5583 69.4385 62.5583C68.787 62.5583 68.2781 62.314 67.8913 61.8254C67.5045 61.3368 67.3213 60.665 67.3213 59.8304C67.3213 58.9143 67.5045 58.2018 67.8913 57.6725C68.2577 57.1432 68.8278 56.8786 69.5606 56.8786C70.721 56.8786 71.3724 57.5097 71.5149 58.7718L70.3953 58.955C70.3138 58.2425 70.0492 57.8761 69.581 57.8761C69.296 57.8761 69.072 58.0186 68.9092 58.2832C68.7463 58.5479 68.6649 59.0568 68.6649 59.7897C68.6649 60.4411 68.7463 60.9093 68.9092 61.1943C69.072 61.459 69.3163 61.6015 69.642 61.6015C70.151 61.6015 70.4156 61.2351 70.4156 60.5022H69.5606V59.525H69.5403ZM63.657 60.38L63.087 58.1204L62.5373 60.38H63.657ZM62.578 56.9396H63.8402L65.4688 62.4565H64.1863L63.9013 61.3165H62.293L62.008 62.4565H60.8477L62.578 56.9396Z" fill="white"/>
<path fill-rule="evenodd" clip-rule="evenodd" d="M45.9064 0C63.6784 0 79.0483 10.3008 86.3566 25.2635C79.3129 12.1534 65.4699 3.23682 49.53 3.23682C26.4651 3.23682 7.75668 21.9453 7.75668 45.0102C7.75668 68.0751 26.4651 86.7632 49.53 86.7632C65.4495 86.7632 79.2926 77.8466 86.3566 64.7365C79.0483 79.6992 63.6784 90 45.9064 90C21.0501 90 0.89624 69.8462 0.89624 44.9898C0.89624 20.1335 21.0501 0 45.9064 0Z" fill="#C29018"/>
</svg>
